<svg width="54" height="54" viewBox="0 0 54 54" fill="none" xmlns="http://www.w3.org/2000/svg">
    <path d="M53.2812 26.6406C53.2812 41.3571 41.3528 53.2812 26.6406 53.2812C11.9284 53.2812 0 41.3571 0 26.6406C0 11.9327 11.9284 0 26.6406 0C41.3528 0 53.2812 11.9327 53.2812 26.6406ZM26.6406 32.0117C23.9116 32.0117 21.6992 34.2241 21.6992 36.9531C21.6992 39.6822 23.9116 41.8945 26.6406 41.8945C29.3697 41.8945 31.582 39.6822 31.582 36.9531C31.582 34.2241 29.3697 32.0117 26.6406 32.0117ZM21.9492 14.2499L22.746 28.8593C22.7833 29.5429 23.3486 30.0781 24.0332 30.0781H29.2481C29.9327 30.0781 30.4979 29.5429 30.5352 28.8593L31.3321 14.2499C31.3723 13.5115 30.7844 12.8906 30.0449 12.8906H23.2362C22.4967 12.8906 21.9089 13.5115 21.9492 14.2499Z" fill="#C80606"/>
</svg>
