<svg width="55" height="49" viewBox="0 0 55 49" fill="none" xmlns="http://www.w3.org/2000/svg">
    <path d="M54.381 42.0151C56.1435 45.0701 53.9311 48.8889 50.4109 48.8889H4.58852C1.06155 48.8889 -1.14055 45.0642 0.618491 42.0151L23.53 2.29023C25.2933 -0.76618 29.7099 -0.760642 31.47 2.29023L54.381 42.0151ZM27.5 33.8021C25.0742 33.8021 23.1077 35.7686 23.1077 38.1944C23.1077 40.6203 25.0742 42.5868 27.5 42.5868C29.9258 42.5868 31.8924 40.6203 31.8924 38.1944C31.8924 35.7686 29.9258 33.8021 27.5 33.8021ZM23.3299 18.0138L24.0382 30.9999C24.0713 31.6076 24.5737 32.0833 25.1823 32.0833H29.8178C30.4263 32.0833 30.9287 31.6076 30.9619 30.9999L31.6702 18.0138C31.706 17.3575 31.1834 16.8056 30.5261 16.8056H24.4739C23.8165 16.8056 23.294 17.3575 23.3299 18.0138Z" fill="#EF6C00"/>
</svg>
